<svg id="eFkrqafS3Jx1" xmlns="http://www.w3.org/2000/svg" xmlns:xlink="http://www.w3.org/1999/xlink" viewBox="0 0 1280 1280" shape-rendering="geometricPrecision" text-rendering="geometricPrecision"><defs><linearGradient id="eFkrqafS3Jx17-stroke" x1="908.23" y1="256.89" x2="937.99" y2="256.89" spreadMethod="pad" gradientUnits="userSpaceOnUse" gradientTransform="translate(0 0)"><stop id="eFkrqafS3Jx17-stroke-0" offset="0%" stop-color="#b2b2b2"/><stop id="eFkrqafS3Jx17-stroke-1" offset="100%" stop-color="#848484"/></linearGradient><linearGradient id="eFkrqafS3Jx18-stroke" x1="937.99" y1="256.89" x2="908.23" y2="256.89" spreadMethod="pad" gradientUnits="userSpaceOnUse" gradientTransform="translate(0 0)"><stop id="eFkrqafS3Jx18-stroke-0" offset="0%" stop-color="#b2b2b2"/><stop id="eFkrqafS3Jx18-stroke-1" offset="100%" stop-color="#848484"/></linearGradient></defs><g><g><path d="M955.75,1142.58v3.42h-50.65v-10.13h5.63v-904.87h24.76v904.87h13.55c3.7,0,6.71,3,6.71,6.71Z" fill="#b2b2b2"/><path d="M927,1138.77v7.23h-34.28v-3.77c0-3.51,2.85-6.36,6.36-6.36h11.65v-904.87h9v904.87h4.37c1.6,0,2.9,1.3,2.9,2.9Z" fill="#848484"/><rect width="598.75" height="24.76" rx="0" ry="0" transform="translate(362.63 244.51)" fill="#b2b2b2"/><rect width="9" height="598.75" rx="0" ry="0" transform="matrix(0 1-1 0 961.37 260.26)" fill="#848484"/><rect width="24.76" height="7.88" rx="0" ry="0" transform="translate(910.73 269.27)" fill="#848484"/></g></g><g transform="translate(.010005 0)"><g><path d="M955.75,1142.58v3.42h-50.65v-10.13h5.63v-904.87h24.76v904.87h13.55c3.7,0,6.71,3,6.71,6.71Z" fill="#b2b2b2"/><path d="M927,1138.77v7.23h-34.28v-3.77c0-3.51,2.85-6.36,6.36-6.36h11.65v-904.87h9v904.87h4.37c1.6,0,2.9,1.3,2.9,2.9Z" fill="#848484"/><rect width="598.75" height="24.76" rx="0" ry="0" transform="translate(362.63 244.51)" fill="#b2b2b2"/><rect width="9" height="598.75" rx="0" ry="0" transform="matrix(0 1-1 0 961.37 260.26)" fill="#848484"/><rect width="24.76" height="7.88" rx="0" ry="0" transform="translate(910.73 269.27)" fill="#848484"/></g><g><line x1="935.49" y1="244.51" x2="910.73" y2="269.27" fill="none" stroke="url(#eFkrqafS3Jx17-stroke)" stroke-width="5" stroke-linecap="round" stroke-miterlimit="10"/><line x1="910.73" y1="244.51" x2="935.49" y2="269.27" fill="none" stroke="url(#eFkrqafS3Jx18-stroke)" stroke-width="5" stroke-linecap="round" stroke-miterlimit="10"/><path d="M676.77,276.2c-.38,2.19-1.23,4.3-2.51,6.22l-65.92,99.49c-4.14,6.24-1.63,14.18,5.59,17.74l10.14,5c8.06,3.98,18.32,1.56,22.93-5.39l70.78-106.8c2.14-3.24,5.31-5.87,9.11-7.65c5.15-2.4,6.01-7.1,6.01-12.5v-21.44c0-7.85-4.74-14.21-13.83-14.21h-25.15c-9.09,0-16.47,6.36-16.47,14.21v19.47c0,1.31-.11,2.61-.34,3.9l-.34,1.95Z" fill="#00bee0"/><path d="M577.56,431.91c0,1.51-.11,3.02-.34,4.52l-.34,2.25" fill="#00bee0"/><path d="M502.31,276.29c.38,2.19,1.23,4.3,2.51,6.22L570.74,382c4.14,6.24,1.63,14.18-5.59,17.74l-10.14,5c-8.06,3.98-18.32,1.56-22.93-5.39L461.3,292.55c-2.14-3.24-5.31-5.87-9.11-7.65-5.15-2.4-6.01-7.1-6.01-12.5v-21.44c0-7.85,4.74-14.21,13.83-14.21h25.15c9.09,0,16.47,6.36,16.47,14.21v19.47c0,1.31.11,2.61.34,3.9l.34,1.95Z" fill="#00bee0"/><path d="M624.89,540.5h-72.1c-9.93,0-17.97-7.59-17.97-16.96v-129.53c0-12.34,10.6-22.34,23.68-22.34l17.53,4.91c8.36,2.34,17.27,2.34,25.63,0l17.53-4.91c13.08,0,23.68,10,23.68,22.34v129.53c0,9.36-8.05,16.96-17.97,16.96Z" fill="#00bee0"/><polygon points="656.53,384.9 647.01,399.26 645.56,401.13 643.9,402.66 642.79,403.49 640,405 631,380 649,374 656.53,384.9" fill="#00bee0"/><circle id="eFkrqafS3Jx24" r="46.14" transform="translate(588.845 426.838993)" fill="#00bee0"/></g></g>
</svg>
