<svg id="esfj8i5JVyE1" xmlns="http://www.w3.org/2000/svg" xmlns:xlink="http://www.w3.org/1999/xlink" viewBox="0 0 1280 1280" shape-rendering="geometricPrecision" text-rendering="geometricPrecision"><defs><linearGradient id="esfj8i5JVyE10-stroke" x1="908.23" y1="256.89" x2="937.99" y2="256.89" spreadMethod="pad" gradientUnits="userSpaceOnUse" gradientTransform="translate(0 0)"><stop id="esfj8i5JVyE10-stroke-0" offset="0%" stop-color="#b2b2b2"/><stop id="esfj8i5JVyE10-stroke-1" offset="100%" stop-color="#848484"/></linearGradient><linearGradient id="esfj8i5JVyE11-stroke" x1="937.99" y1="256.89" x2="908.23" y2="256.89" spreadMethod="pad" gradientUnits="userSpaceOnUse" gradientTransform="translate(0 0)"><stop id="esfj8i5JVyE11-stroke-0" offset="0%" stop-color="#b2b2b2"/><stop id="esfj8i5JVyE11-stroke-1" offset="100%" stop-color="#848484"/></linearGradient></defs><g><path d="M955.75,1142.58v3.42h-50.65v-10.13h5.63v-904.87h24.76v904.87h13.55c3.7,0,6.71,3,6.71,6.71Z" fill="#b2b2b2"/><path d="M927,1138.77v7.23h-34.28v-3.77c0-3.51,2.85-6.36,6.36-6.36h11.65v-904.87h9v904.87h4.37c1.6,0,2.9,1.3,2.9,2.9Z" fill="#848484"/><rect width="598.75" height="24.76" rx="0" ry="0" transform="translate(362.63 244.51)" fill="#b2b2b2"/><rect width="9" height="598.75" rx="0" ry="0" transform="matrix(0 1-1 0 961.37 260.26)" fill="#848484"/><rect width="24.76" height="7.88" rx="0" ry="0" transform="translate(910.73 269.27)" fill="#848484"/></g><g><path d="M577.56,431.91c0,1.51-.11,3.02-.34,4.52l-.34,2.25" fill="#00bee0"/><line x1="935.49" y1="244.51" x2="910.73" y2="269.27" fill="none" stroke="url(#esfj8i5JVyE10-stroke)" stroke-width="5" stroke-linecap="round" stroke-miterlimit="10"/><line x1="910.73" y1="244.51" x2="935.49" y2="269.27" fill="none" stroke="url(#esfj8i5JVyE11-stroke)" stroke-width="5" stroke-linecap="round" stroke-miterlimit="10"/><path d="M577.56,431.91c0,1.51-.11,3.02-.34,4.52l-.34,2.25" fill="#00bee0"/><path id="esfj8i5JVyE13" d="M502.31,276.29c.38,2.19,1.23,4.3,2.51,6.22L570.74,382c4.14,6.24,1.63,14.18-5.59,17.74l-10.14,5c-8.06,3.98-18.32,1.56-22.93-5.39L461.3,292.55c-2.14-3.24-5.31-5.87-9.11-7.65-5.15-2.4-6.01-7.1-6.01-12.5v-21.44c0-7.85,4.74-14.21,13.83-14.21h25.15c9.09,0,16.47,6.36,16.47,14.21v19.47c0,1.31.11,2.61.34,3.9l.34,1.95Z" transform="matrix(0 0 0 0 471.47663 256.89)" fill="#00bee0"/></g>
</svg>
