<svg id="evUf93cGQYW1" xmlns="http://www.w3.org/2000/svg" xmlns:xlink="http://www.w3.org/1999/xlink" viewBox="0 0 1280 1280" shape-rendering="geometricPrecision" text-rendering="geometricPrecision"><defs><linearGradient id="evUf93cGQYW12-stroke" x1="908.23" y1="256.89" x2="937.99" y2="256.89" spreadMethod="pad" gradientUnits="userSpaceOnUse" gradientTransform="translate(0 0)"><stop id="evUf93cGQYW12-stroke-0" offset="0%" stop-color="#b2b2b2"/><stop id="evUf93cGQYW12-stroke-1" offset="100%" stop-color="#848484"/></linearGradient><linearGradient id="evUf93cGQYW13-stroke" x1="937.99" y1="256.89" x2="908.23" y2="256.89" spreadMethod="pad" gradientUnits="userSpaceOnUse" gradientTransform="translate(0 0)"><stop id="evUf93cGQYW13-stroke-0" offset="0%" stop-color="#b2b2b2"/><stop id="evUf93cGQYW13-stroke-1" offset="100%" stop-color="#848484"/></linearGradient></defs><g><g transform="translate(.000001 0)"><path d="M955.75,1142.58v3.42h-50.65v-10.13h5.63v-904.87h24.76v904.87h13.55c3.7,0,6.71,3,6.71,6.71Z" fill="#b2b2b2"/><path d="M927,1138.77v7.23h-34.28v-3.77c0-3.51,2.85-6.36,6.36-6.36h11.65v-904.87h9v904.87h4.37c1.6,0,2.9,1.3,2.9,2.9Z" fill="#848484"/></g><g id="evUf93cGQYW6" transform="matrix(0 0 0 1 961.38 0.000001)"><rect width="598.75" height="24.76" rx="0" ry="0" transform="translate(362.63 244.51)" fill="#b2b2b2"/><rect width="9" height="598.75" rx="0" ry="0" transform="matrix(0 1-1 0 961.37 260.26)" fill="#848484"/></g><g id="evUf93cGQYW9" transform="matrix(0 0 0 1 935.49 0)"><rect width="24.76" height="7.88" rx="0" ry="0" transform="translate(910.73 269.27)" fill="#848484"/></g></g><g transform="matrix(1 0 0 0.999998 0 0.000514)"><line id="evUf93cGQYW12" x1="935.49" y1="244.51" x2="913.014152" y2="266.985848" transform="matrix(0 0 0 0 935.49 244.510001)" opacity="0" fill="none" stroke="url(#evUf93cGQYW12-stroke)" stroke-width="5" stroke-linecap="round" stroke-miterlimit="10"/><line id="evUf93cGQYW13" x1="910.730001" y1="244.51" x2="935.49" y2="269.27" transform="matrix(0 0 0 0 910.730001 244.51)" opacity="0" fill="none" stroke="url(#evUf93cGQYW13-stroke)" stroke-width="5" stroke-linecap="round" stroke-miterlimit="10"/></g>
</svg>
